<?xml version="1.0" encoding="utf-8"?>
<!-- Generator: Adobe Illustrator 15.1.0, SVG Export Plug-In . SVG Version: 6.00 Build 0)  -->
<!DOCTYPE svg PUBLIC "-//W3C//DTD SVG 1.1//EN" "http://www.w3.org/Graphics/SVG/1.1/DTD/svg11.dtd">
<svg version="1.1" id="Layer_1" xmlns="http://www.w3.org/2000/svg" xmlns:xlink="http://www.w3.org/1999/xlink" x="0px" y="0px"
	 width="612px" height="792px" viewBox="0 0 612 792" enable-background="new 0 0 612 792" xml:space="preserve">
<path d="M206.887,185.117c-3.715-3.434-9.535-3.195-12.975,0.532L76.329,313.282c-3.231,3.513-3.231,8.923,0,12.436l117.583,127.627
	c1.812,1.964,4.278,2.962,6.756,2.962c2.222,0,4.462-0.802,6.224-2.43c3.727-3.434,3.96-9.241,0.533-12.969L95.558,319.5
	l111.855-121.409C210.846,194.364,210.614,188.557,206.887,185.117z M535.671,313.282L418.088,185.649
	c-3.439-3.727-9.247-3.966-12.975-0.532c-3.727,3.433-3.96,9.241-0.532,12.968L516.442,319.5L404.581,440.908
	c-3.434,3.728-3.194,9.535,0.532,12.969c1.763,1.628,3.996,2.43,6.225,2.43c2.472,0,4.944-0.998,6.756-2.962l117.584-127.627
	C538.909,322.205,538.909,316.795,535.671,313.282z M373.645,148.825c-4.713-1.86-10.049,0.435-11.916,5.153l-128.52,324.274
	c-1.867,4.712,0.434,10.049,5.153,11.915c1.114,0.441,2.252,0.649,3.384,0.649c3.654,0,7.105-2.197,8.538-5.802l128.52-324.274
	C380.658,156.035,378.356,150.692,373.645,148.825z"/>
</svg>
