<?xml version="1.0" encoding="utf-8"?>
<!-- Generator: Adobe Illustrator 15.1.0, SVG Export Plug-In . SVG Version: 6.00 Build 0)  -->
<!DOCTYPE svg PUBLIC "-//W3C//DTD SVG 1.1//EN" "http://www.w3.org/Graphics/SVG/1.1/DTD/svg11.dtd">
<svg version="1.1" id="Layer_1" xmlns="http://www.w3.org/2000/svg" xmlns:xlink="http://www.w3.org/1999/xlink" x="0px" y="0px"
	 width="612px" height="792px" viewBox="0 0 612 792" enable-background="new 0 0 612 792" xml:space="preserve">
<g>
	<path d="M53.495,269.196L85,300.708l57.008-57.008c1.536-1.536,2.497-3.66,2.497-6.01c0-4.694-3.807-8.5-8.5-8.5
		c-2.35,0-4.474,0.955-6.01,2.491l-44.988,44.988l-19.486-19.492c-1.542-1.536-3.666-2.491-6.016-2.491
		c-4.694,0-8.501,3.807-8.501,8.5C50.998,265.53,51.953,267.66,53.495,269.196z"/>
	<path d="M135.999,314.184c-2.35,0-4.474,0.955-6.01,2.491L85,361.663l-19.486-19.486c-1.542-1.536-3.666-2.491-6.016-2.491
		c-4.694,0-8.5,3.807-8.5,8.5c0,2.35,0.955,4.474,2.491,6.01l31.506,31.512l57.008-57.008c1.536-1.536,2.497-3.66,2.497-6.01
		C144.5,317.991,140.693,314.184,135.999,314.184z"/>
	<path d="M135.999,399.185c-2.35,0-4.474,0.955-6.01,2.491L85,446.67l-19.486-19.492c-1.542-1.536-3.666-2.491-6.016-2.491
		c-4.694,0-8.5,3.801-8.5,8.501c0,2.35,0.955,4.474,2.491,6.01l31.506,31.506l57.008-57.008c1.536-1.536,2.497-3.66,2.497-6.01
		C144.5,402.985,140.693,399.185,135.999,399.185z"/>
</g>
<rect x="161.5" y="254.686" width="76.5" height="25.502"/>
<rect x="161.5" y="339.686" width="76.5" height="25.502"/>
<rect x="161.5" y="424.687" width="76.5" height="25.502"/>
<path d="M0,178.186v348.503h612V178.186H0z M17.001,509.688V195.187h246.501v314.501H17.001z M595.005,509.688H280.498V195.187
	h314.501v314.501H595.005z"/>
<polygon points="493.003,424.687 493.003,433.188 484.502,433.188 484.502,348.187 475.995,348.187 467.501,348.187 
	467.501,339.686 399.495,339.686 399.495,348.187 391.001,348.187 391.001,263.186 382.5,263.186 373.999,263.186 373.999,254.686 
	306,254.686 306,280.188 373.999,280.188 373.999,271.687 382.5,271.687 382.5,348.187 382.5,356.688 399.495,356.688 
	399.495,365.182 467.501,365.182 467.501,356.688 475.995,356.688 475.995,433.188 475.995,441.682 493.003,441.682 
	493.003,450.188 561.002,450.188 561.002,424.687 "/>
</svg>
