<?xml version="1.0" encoding="utf-8"?>
<!-- Generator: Adobe Illustrator 15.1.0, SVG Export Plug-In . SVG Version: 6.00 Build 0)  -->
<!DOCTYPE svg PUBLIC "-//W3C//DTD SVG 1.1//EN" "http://www.w3.org/Graphics/SVG/1.1/DTD/svg11.dtd">
<svg version="1.1" id="Layer_1" xmlns="http://www.w3.org/2000/svg" xmlns:xlink="http://www.w3.org/1999/xlink" x="0px" y="0px"
	 width="612px" height="792px" viewBox="0 0 612 792" enable-background="new 0 0 612 792" xml:space="preserve">
<g>
	<path d="M588.462,136.842h-80.031V70.934h-34.837V49.278H313.532h-14.123H137.465v22.597h-34.837v65.908H23.539
		c-14.123,0-26.363,11.298-26.363,26.363v333.305c0,14.123,11.298,26.362,26.363,26.362h204.314l-35.779,53.668h-37.662v14.123
		h304.117v-14.123h-37.662l-35.778-53.668h204.314c14.123,0,26.363-11.298,26.363-26.362V163.205
		C614.824,149.082,602.585,136.842,588.462,136.842z M313.532,63.401h146.88v217.496h-146.88V63.401z M151.588,63.401h146.88
		v217.496h-146.88V63.401z M116.751,85.999h20.714V295.02h161.003h14.123h161.003V85.999h20.714v236.326H116.751V85.999z
		 M23.539,150.965h79.089v184.542h405.803V150.965h80.031c6.591,0,12.239,5.649,12.239,12.24v301.292H12.24V163.205
		C12.24,156.614,16.948,150.965,23.539,150.965z M402.979,575.599H209.021l35.778-53.668h122.4L402.979,575.599z M588.462,508.749
		H23.539c-6.591,0-11.298-5.649-11.298-12.24V478.62h588.461v17.889C600.701,503.1,595.053,508.749,588.462,508.749z"/>
	<path d="M186.425,215.931l86.621-44.252l-86.621-44.252V215.931z M200.548,150.965l41.428,21.655l-41.428,21.655V150.965z"/>
	<rect x="338.013" y="90.706" width="96.979" height="14.123"/>
	<rect x="338.013" y="139.666" width="96.979" height="14.123"/>
	<rect x="338.013" y="188.626" width="96.979" height="14.123"/>
	<rect x="357.784" y="236.645" width="58.376" height="14.123"/>
</g>
</svg>
