<?xml version="1.0" encoding="utf-8"?>
<!-- Generator: Adobe Illustrator 15.1.0, SVG Export Plug-In . SVG Version: 6.00 Build 0)  -->
<!DOCTYPE svg PUBLIC "-//W3C//DTD SVG 1.1//EN" "http://www.w3.org/Graphics/SVG/1.1/DTD/svg11.dtd">
<svg version="1.1" id="Layer_1" xmlns="http://www.w3.org/2000/svg" xmlns:xlink="http://www.w3.org/1999/xlink" x="0px" y="0px"
	 width="612px" height="792px" viewBox="0 0 612 792" enable-background="new 0 0 612 792" xml:space="preserve">
<path d="M538.615,598.737l-140.411-93.605l75.459-21.15c5.398-1.561,10.001-5.3,12.639-10.307c2.638-5.03,3.103-10.783,1.315-16.224
	l-18.348-55.05c9.56-5.673,23.966-17.968,23.966-40.521V239.763c0-18.929-13.771-33.238-29.682-39.89v-64.364
	c2.19-19.958-10.863-38.023-31.249-43.109l-57.772-14.456v-7.338c0-22.778-18.257-47.161-45.447-47.161h-46.292
	c-23.721,0-45.325,22.479-45.325,47.161v7.308l-57.895,14.48c-20.453,5.11-33.458,23.188-31.133,43.14v64.333
	c-15.906,6.646-29.682,20.961-29.682,39.896v122.118c0,21.463,12.852,34.486,23.868,40.796l-18.262,54.811
	c-1.775,5.41-1.31,11.157,1.346,16.23c2.625,4.964,7.228,8.703,12.693,10.288l75.386,21.132l-140.405,93.6
	c-4.216,2.815-5.361,8.513-2.546,12.729c1.769,2.656,4.682,4.088,7.644,4.088c1.75,0,3.519-0.495,5.085-1.542l57.033-38.023h330.792
	l57.032,38.023c1.567,1.047,3.336,1.542,5.086,1.542c2.962,0,5.875-1.432,7.645-4.088
	C543.977,607.25,542.832,601.553,538.615,598.737z M399.33,527.953h-82.51l59.939-16.799c0.679,1.548,1.78,2.931,3.292,3.947
	L399.33,527.953z M360.908,93.458c1.322,0.734,2.828,1.193,4.449,1.193c0.086,0,0.159-0.024,0.239-0.024l62.265,15.575
	c11.444,2.858,18.764,12.791,17.418,23.617c-0.049,0.385-0.074,0.759-0.074,1.145v59.994L315.18,167.412V82.02L360.908,93.458z
	 M255.828,70.605c0-12.962,12.442-28.8,26.965-28.8h46.292c15.961,0,27.087,15.177,27.087,28.8v2.742l-45.074-11.279
	c-3.354-0.888-6.921-0.894-10.189-0.031l-45.08,11.279V70.605z M184.022,110.208L296.82,81.995v85.423L166.801,194.97v-60
	c0-0.404-0.025-0.808-0.08-1.206C165.289,122.975,172.56,113.066,184.022,110.208z M143.44,466.35
	c-0.648-0.189-1.181-0.624-1.475-1.169c-0.318-0.618-0.374-1.292-0.166-1.916l20.875-62.645c0.79-2.362,0.587-4.944-0.569-7.147
	c-1.15-2.204-3.146-3.85-5.526-4.554c-0.189-0.061-19.456-6.022-19.456-27.032V239.763c0-12.926,12.442-22.351,24.719-24.976
	L306,184.236l144.145,30.539c12.295,2.632,24.737,12.057,24.737,24.982v122.119c0,19.798-19.076,26.879-19.835,27.154
	c-4.762,1.64-7.313,6.806-5.723,11.585l20.869,62.607c0.215,0.661,0.159,1.341-0.135,1.916c-0.312,0.594-0.845,1.022-1.42,1.188
	L306,511.913L143.44,466.35z M231.948,515.095c1.511-1.01,2.613-2.398,3.292-3.947l59.939,16.8h-82.51L231.948,515.095z
	 M168.147,557.629l17.271-11.518c0.612,0.129,1.23,0.196,1.879,0.196h239.58l16.977,11.321H168.147L168.147,557.629z
	 M371.227,344.965c0,11.438,9.309,20.753,20.753,20.753s20.753-9.309,20.753-20.753s-9.309-20.759-20.753-20.759
	S371.227,333.521,371.227,344.965z M394.367,344.965c0,1.322-1.071,2.393-2.394,2.393c-1.321,0-2.393-1.071-2.393-2.393
	s1.071-2.399,2.393-2.399C393.296,342.566,394.367,343.644,394.367,344.965z M189.261,344.965c0,11.438,9.309,20.753,20.753,20.753
	c11.445,0,20.753-9.309,20.753-20.753s-9.308-20.759-20.753-20.759C198.569,324.206,189.261,333.521,189.261,344.965z
	 M212.401,344.965c0,1.322-1.071,2.393-2.393,2.393s-2.393-1.071-2.393-2.393s1.071-2.399,2.393-2.399
	S212.401,343.644,212.401,344.965z M315.119,487.672v-58.826l18.268-3.653l8.115,41.965c0.851,4.388,4.694,7.436,9.003,7.436
	c0.581,0,1.162-0.055,1.756-0.165c4.976-0.961,8.231-5.777,7.271-10.759l-8.133-42.075l14.56-2.913l10,37.356
	c1.102,4.106,4.81,6.806,8.861,6.806c0.79,0,1.585-0.104,2.381-0.312c4.902-1.315,7.803-6.347,6.499-11.242l-9.693-36.218
	l12.368-2.473l11.928,34.479c1.315,3.801,4.872,6.182,8.679,6.182c0.997,0,2.007-0.159,2.998-0.502
	c4.792-1.658,7.332-6.891,5.68-11.677l-11.107-32.111l6.652-1.328c4.976-0.992,8.194-5.826,7.203-10.802
	c-0.991-4.976-5.833-8.232-10.802-7.204l-111.666,22.32l-111.653-22.314c-4.97-1.022-9.811,2.228-10.802,7.204
	c-0.992,4.976,2.228,9.811,7.203,10.802l5.802,1.156L185.32,441.08c-1.659,4.786,0.887,10.019,5.679,11.677
	c0.992,0.343,2.001,0.502,2.999,0.502c3.807,0,7.362-2.381,8.678-6.182l11.989-34.645l12.356,2.466l-9.749,36.384
	c-1.31,4.901,1.597,9.933,6.493,11.248c0.802,0.208,1.597,0.312,2.387,0.312c4.051,0,7.766-2.699,8.862-6.8l10.061-37.533
	l14.542,2.906l-8.164,42.253c-0.961,4.976,2.295,9.792,7.271,10.753c0.587,0.116,1.169,0.165,1.75,0.165
	c4.309,0,8.152-3.048,9.002-7.442l8.14-42.136l19.15,3.825v58.825c0,5.067,4.112,9.18,9.18,9.18
	C311.013,496.839,315.119,492.739,315.119,487.672z M306,318.79c23.739,0,43.538-17.069,47.846-39.572h80.748
	c5.067,0,9.18-4.113,9.18-9.18s-4.112-9.18-9.18-9.18h-80.748c-4.308-22.503-24.106-39.566-47.846-39.566
	s-43.538,17.062-47.846,39.566h-80.759c-5.067,0-9.18,4.112-9.18,9.18s4.113,9.18,9.18,9.18h80.753
	C262.462,301.721,282.261,318.79,306,318.79z M306,239.652c16.75,0,30.386,13.635,30.386,30.386
	c0,16.757-13.636,30.392-30.386,30.392c-16.75,0-30.386-13.635-30.386-30.392C275.614,253.288,289.25,239.652,306,239.652z"/>
</svg>
