<?xml version="1.0" encoding="utf-8"?>
<!-- Generator: Adobe Illustrator 15.1.0, SVG Export Plug-In . SVG Version: 6.00 Build 0)  -->
<!DOCTYPE svg PUBLIC "-//W3C//DTD SVG 1.1//EN" "http://www.w3.org/Graphics/SVG/1.1/DTD/svg11.dtd">
<svg version="1.1" id="Layer_1" xmlns="http://www.w3.org/2000/svg" xmlns:xlink="http://www.w3.org/1999/xlink" x="0px" y="0px"
	 width="612px" height="792px" viewBox="0 0 612 792" enable-background="new 0 0 612 792" xml:space="preserve">
<path d="M353.075,91.34c0,0-22.613-17.687-50.992-11.512c0,0,11.108,6.163,16.873,11.512c0,0-17.271-2.46-37.43,9.461
	c0,0,7.399,6.989,18.507,6.989c0,0-18.507,6.169-30.435,15.624c0,0,5.343,7.399,18.911,10.288c0,0-18.097,14.798-34.951,19.737
	c0,0,17.271,7.809,32.497,3.696c0,0-15.22,18.507-36.604,21.383c0,0,10.698,8.226,30.025,5.349c0,0-17.693,10.282-23.856,26.726
	c-6.169,16.457-14.394,18.911-14.394,18.911s29.608,1.652,40.3-15.202c0,0-10.288,11.102-12.748,29.603
	c-2.46,18.507-10.282,22.62-10.282,22.62s34.958-13.434,42.363-35.508c0,0,1.64,48.256-51.543,80.056
	c-53.189,31.806-50.992,58.122-50.992,58.122s-58.128-1.64-68.544,46.065c-10.404,47.693,7.674,69.076-12.607,97.045
	c0,0,24.119-11.524,25.765-47.706c0,0,4.939,41.121-13.158,69.089c0,0,23.581-11.523,26.873-29.608c0,0-3.831,33.997,3.831,50.441
	c0,0,14.266-15.9,12.068-42.767c0,0,4.523,13.843,18.097,21.658c0,0-9.052-31.255-10.692-68.537c0,0,7.124,16.45,17.271,25.22
	c0,0,1.646-33.996-13.434-51.817c-15.08-17.822-4.388-38.654,12.882-41.121c0,0-4.938,36.732,29.064,53.728
	c0,0,7.681,21.935-12.062,48.257c0,0,3.287,36.182,31.8,67.986c0,0-11.653,7.602-2.405,13.984l-2.809,11.365
	c0,0,19.59,4.112,36.457,2.473c0,0-1.64-17.546-12.472-28.654c0,0-24.67-41.946-13.152-57.986
	c11.512-16.041,54.144-27.277,54.694-74.432c0.545-47.155,43.183-35.368,71.965-55.104c28.782-19.737,35.361-55.925,35.361-55.925
	s5.766,9.045,12.742,10.275c6.995,1.236,34.131-28.372,45.649-30.019c11.523-1.652-3.287,38.244-3.287,38.244
	s0.135,17.142,12.473,22.613c0,0,17.821-11.236,13.428-44.407c-4.382-33.17-7.118-47.699-29.603-35.092
	c-22.485,12.62-30.435-4.926-28.244-18.911c2.197-13.984-3.011-29.884-39.198-49.621c-36.188-19.743-32.896-44.823-18.091-43.176
	c14.798,1.64,27.142,33.311,41.53,28.366c9.217-3.152,18.164-14.26,2.883-26.726c-15.625-12.748-14.805-51.818-44.003-60.857
	l56.15-69.891L353.075,91.34z"/>
</svg>
